STARTFONT 2.1
COMMENT ter-u12n
FONT -xos4-Terminus-Medium-R-Normal--12-120-72-72-C-60-ISO10646-1
SIZE 12 72 72
FONTBOUNDINGBOX 6 12 0 -2
STARTPROPERTIES 20
FAMILY_NAME "Terminus"
FOUNDRY "xos4"
SETWIDTH_NAME "Normal"
ADD_STYLE_NAME ""
COPYRIGHT "Copyright (C) 2014 Dimitar Toshkov Zhekov"
NOTICE "Licensed under the SIL Open Font License, Version 1.1"
WEIGHT_NAME "Medium"
SLANT "R"
PIXEL_SIZE 12
POINT_SIZE 120
RESOLUTION_X 72
RESOLUTION_Y 72
SPACING "C"
AVERAGE_WIDTH 60
CHARSET_REGISTRY "ISO10646"
CHARSET_ENCODING "1"
MIN_SPACE 6
FONT_ASCENT 10
FONT_DESCENT 2
DEFAULT_CHAR 65533
ENDPROPERTIES
CHARS 891
STARTCHAR space
ENCODING 32
SWIDTH 500 0
DWIDTH 6 0
BBX 6 12 0 -2
BITMAP
00
00
00
00
00
00
00
00
00
00
00
00
ENDCHAR

STARTCHAR I
ENCODING 73
SWIDTH 500 0
DWIDTH 6 0
BBX 6 12 0 -1
BITMAP
3C
3C
3C
3C
3C
3C
3C
3C
3C
3C
3C
3C
ENDCHAR
ENDFONT


